<svg xmlns="http://www.w3.org/2000/svg" width="512" height="512" style="" viewBox="0 0 512 512" data-svgdocument="" id="_hSK60BwcBLm6V065GgJmZ" class="fl-svgdocument" x="0" y="0" xmlns:xlink="http://www.w3.org/1999/xlink"><defs id="_v3VGa1VWWC-Sty9kxChJ5" transform="matrix(1.6607965383496042, 0, 0, 1.6607965383496042, -63.775569887968686, 51.09332530528555)"/><path text="RED LEAF" text-anchor="start" font-size="100" letter-spacing="0" side="left" offset="0" dx="0" dy="0" space="preserve" href="" font-family="Source Sans Pro" font-scale="contain" transform="matrix(0.7032967500114742, 0, 0, 0.7032967500114742, 187.18239490290105, 246.75095936272268)" x="0" y="0" fill="#000000" data-fl-textpath="" id="_JCuS4RA9WlKHjGSi2rzAb" d="M 17.3 0L 9 0L 9-65.6L 29.5-65.6Q 34.5-65.6  38.75-64.65Q 43-63.7  46.05-61.5Q 49.1-59.3  50.8-55.8Q 52.5-52.3  52.5-47.2L 52.5-47.2Q 52.5-39.5  48.5-34.9Q 44.5-30.3  37.7-28.6L 37.7-28.6L 54.4 0L 45 0L 29.2-27.7L 17.3-27.7L 17.3 0ZM 17.3-58.9L 17.3-34.5L 28.3-34.5Q 36-34.5  40.1-37.65Q 44.2-40.8  44.2-47.2L 44.2-47.2Q 44.2-53.7  40.1-56.3Q 36-58.9  28.3-58.9L 28.3-58.9L 17.3-58.9ZM 104.69999999999999 0L 65.9 0L 65.9-65.6L 103.69999999999999-65.6L 103.69999999999999-58.6L 74.2-58.6L 74.2-38L 99.1-38L 99.1-30.9L 74.2-30.9L 74.2-7.1L 104.69999999999999-7.1L 104.69999999999999 0ZM 135.40000000000003 0L 118.60000000000002 0L 118.60000000000002-65.6L 135.00000000000003-65.6Q 150.20000000000002-65.6  158.10000000000002-57.2Q 166.00000000000003-48.8  166.00000000000003-33.1L 166.00000000000003-33.1Q 166.00000000000003-25.3  164.00000000000003-19.15Q 162.00000000000003-13  158.10000000000002-8.75Q 154.20000000000002-4.5  148.50000000000003-2.25Q 142.8 0  135.40000000000003 0L 135.40000000000003 0ZM 126.90000000000002-58.8L 126.90000000000002-6.8L 134.40000000000003-6.8Q 145.90000000000003-6.8  151.65000000000003-13.7Q 157.40000000000003-20.6  157.40000000000003-33.1L 157.40000000000003-33.1Q 157.40000000000003-45.6  151.65000000000003-52.2Q 145.90000000000003-58.8  134.40000000000003-58.8L 134.40000000000003-58.8L 126.90000000000002-58.8ZM 237.10000000000002 0L 200.10000000000002 0L 200.10000000000002-65.6L 208.40000000000003-65.6L 208.40000000000003-7.1L 237.10000000000002-7.1L 237.10000000000002 0ZM 287.5 0L 248.70000000000002 0L 248.70000000000002-65.6L 286.5-65.6L 286.5-58.6L 257-58.6L 257-38L 281.90000000000003-38L 281.90000000000003-30.9L 257-30.9L 257-7.1L 287.5-7.1L 287.5 0ZM 312.70000000000005-36.7L 312.70000000000005-36.7L 309.6-26.7L 329.3-26.7L 326.20000000000005-36.7Q 324.40000000000003-42.2  322.8-47.65Q 321.20000000000005-53.1  319.6-58.8L 319.6-58.8L 319.20000000000005-58.8Q 317.70000000000005-53.1  316.1-47.65Q 314.50000000000006-42.2  312.70000000000005-36.7ZM 301.20000000000005 0L 292.70000000000005 0L 314.90000000000003-65.6L 324.3-65.6L 346.50000000000006 0L 337.6 0L 331.40000000000003-20L 307.50000000000006-20L 301.20000000000005 0ZM 364.1000000000001 0L 355.80000000000007 0L 355.80000000000007-65.6L 393.6000000000001-65.6L 393.6000000000001-58.6L 364.1000000000001-58.6L 364.1000000000001-36.4L 389.1000000000001-36.4L 389.1000000000001-29.4L 364.1000000000001-29.4L 364.1000000000001 0Z"/><path text="ESTATE" text-anchor="start" font-size="100" letter-spacing="0" side="left" offset="0" dx="0" dy="0" space="preserve" href="" font-family="Source Sans Pro" font-scale="contain" transform="matrix(0.7032967500114742, 0, 0, 0.7032967500114742, 186.16261620215565, 310.04764913766235)" x="0" y="0" fill="#000000" font-weight="700" data-fl-textpath="" id="_qdbA3acBACIaR9yTt7R-1" d="M 49.5 0L 7.7 0L 7.7-65.2L 48.5-65.2L 48.5-52.8L 22.4-52.8L 22.4-39.7L 44.6-39.7L 44.6-27.4L 22.4-27.4L 22.4-12.4L 49.5-12.4L 49.5 0ZM 82.4 1.2L 82.4 1.2Q 76.00000000000001 1.2  69.65-1.15Q 63.30000000000001-3.5  58.30000000000001-8.2L 58.30000000000001-8.2L 66.70000000000002-18.3Q 70.20000000000002-15.3  74.45000000000002-13.4Q 78.70000000000002-11.5  82.80000000000001-11.5L 82.80000000000001-11.5Q 87.4-11.5  89.65-13.2Q 91.9-14.9  91.9-17.8L 91.9-17.8Q 91.9-19.3  91.25000000000001-20.4Q 90.60000000000001-21.5  89.35000000000001-22.35Q 88.10000000000001-23.2  86.35000000000001-23.95Q 84.60000000000001-24.7  82.50000000000001-25.6L 82.50000000000001-25.6L 74.00000000000001-29.2Q 71.50000000000001-30.2  69.15-31.8Q 66.80000000000001-33.4  64.95000000000002-35.55Q 63.10000000000001-37.7  62.000000000000014-40.55Q 60.90000000000001-43.4  60.90000000000001-47L 60.90000000000001-47Q 60.90000000000001-51  62.60000000000001-54.55Q 64.30000000000001-58.1  67.4-60.75Q 70.50000000000001-63.4  74.75000000000001-64.9Q 79.00000000000001-66.4  84.10000000000001-66.4L 84.10000000000001-66.4Q 89.80000000000001-66.4  95.35000000000001-64.2Q 100.9-62  105.10000000000001-57.8L 105.10000000000001-57.8L 97.60000000000001-48.5Q 94.4-51  91.20000000000002-52.35Q 88.00000000000001-53.7  84.10000000000001-53.7L 84.10000000000001-53.7Q 80.30000000000001-53.7  78.05000000000001-52.15Q 75.80000000000001-50.6  75.80000000000001-47.8L 75.80000000000001-47.8Q 75.80000000000001-46.3  76.55000000000001-45.25Q 77.30000000000001-44.2  78.65-43.35Q 80.00000000000001-42.5  81.80000000000001-41.75Q 83.60000000000001-41  85.70000000000002-40.1L 85.70000000000002-40.1L 94.10000000000001-36.7Q 100.10000000000001-34.3  103.55000000000001-30.1Q 107.00000000000001-25.9  107.00000000000001-19L 107.00000000000001-19Q 107.00000000000001-14.9  105.35000000000001-11.25Q 103.70000000000002-7.6  100.55000000000001-4.85Q 97.4-2.1  92.80000000000001-0.45Q 88.20000000000002 1.2  82.4 1.2ZM 143.60000000000002 0L 128.8 0L 128.8-52.8L 110.90000000000002-52.8L 110.90000000000002-65.2L 161.50000000000003-65.2L 161.50000000000003-52.8L 143.60000000000002-52.8L 143.60000000000002 0ZM 183-33L 183-33L 181.4-27L 195.3-27L 193.8-33Q 192.4-37.9  191.1-43.4Q 189.8-48.9  188.5-54L 188.5-54L 188.1-54Q 186.9-48.8  185.65-43.35Q 184.4-37.9  183-33ZM 174.4 0L 159.4 0L 179.8-65.2L 197.5-65.2L 217.9 0L 202.3 0L 198.3-15.5L 178.4-15.5L 174.4 0ZM 245.2 0L 230.4 0L 230.4-52.8L 212.5-52.8L 212.5-65.2L 263.1-65.2L 263.1-52.8L 245.2-52.8L 245.2 0ZM 315.1 0L 273.3 0L 273.3-65.2L 314.1-65.2L 314.1-52.8L 288-52.8L 288-39.7L 310.20000000000005-39.7L 310.20000000000005-27.4L 288-27.4L 288-12.4L 315.1-12.4L 315.1 0Z"/><path id="_jwfjiqFz-XyQR0eFlFosC" fill="#943434" d="M50.008,10.627l-36.38-0.002c-0.073,0-0.143,0.016-0.215,0.021c-0.114,0.008-0.228,0.012-0.341,0.033  c-0.082,0.016-0.16,0.044-0.241,0.067c-0.107,0.029-0.215,0.055-0.318,0.097c-0.083,0.033-0.159,0.079-0.238,0.12  c-0.095,0.048-0.19,0.091-0.281,0.15c-0.088,0.058-0.167,0.129-0.249,0.196c-0.065,0.053-0.136,0.096-0.197,0.155  c-0.007,0.007-0.012,0.015-0.019,0.022c-0.007,0.006-0.015,0.011-0.021,0.018c-0.067,0.068-0.12,0.147-0.181,0.22  c-0.062,0.075-0.131,0.146-0.185,0.226c-0.041,0.061-0.069,0.129-0.106,0.192c-0.061,0.107-0.126,0.212-0.173,0.325  c-0.024,0.058-0.037,0.121-0.058,0.18c-0.043,0.124-0.088,0.246-0.113,0.373c-0.015,0.071-0.016,0.144-0.025,0.216  c-0.016,0.12-0.034,0.24-0.035,0.362c0,0.009-0.003,0.018-0.003,0.027v36.371c0,17.075,7.994,26.5,14.7,31.402  c10.126,7.4,21.45,7.976,24.68,7.976l36.365,0.002c0.796,0,1.559-0.316,2.121-0.879s0.879-1.325,0.879-2.121V49.996  C89.373,18.855,63.623,10.627,50.008,10.627z M83.373,49.996v31.756L20.68,16.625l29.328,0.002  C76.399,16.627,83.373,38.454,83.373,49.996z M16.628,49.996V21.067l59.98,62.308l-26.601-0.002  C38.463,83.373,16.628,76.397,16.628,49.996z" transform="matrix(1.406593156937277, 0, 0, 1.406593156937277, 33.04932174270894, 185.66964787457712)"/></svg>